M48
INCH,TZ
T1C0.0157
T2C0.0157
T3C0.0236
T4C0.0236
T5C0.0300
T6C0.0354
T7C0.0402
%
G90
G05
T1
X48000Y-41500
T2
X27469Y-46000
X27469Y-46335
X27469Y-46669
X27469Y-47004
X27469Y-47339
X27469Y-47673
X27469Y-48008
X27469Y-48343
X28000Y-46000
X28000Y-46335
X28000Y-46669
X28000Y-47004
X28000Y-47339
X28000Y-47673
X28000Y-48008
X28000Y-48343
T3
X25000Y-30500
X26000Y-30500
X28000Y-30500
X29000Y-30500
X49000Y-28500
T5
X39000Y-30500
X39000Y-31500
X39000Y-32500
X39000Y-33500
X39000Y-34500
X39000Y-35500
X39000Y-36500
X39000Y-37500
X39000Y-38500
X39000Y-39500
T6
X29803Y-33000
X29803Y-34000
X29803Y-35000
X29803Y-36000
X29803Y-39796
X29803Y-40796
X29803Y-41796
X29803Y-42796
X30803Y-33500
X30803Y-34500
X30803Y-35500
X30803Y-36500
X30803Y-40296
X30803Y-41296
X30803Y-42296
X30803Y-43296
T7
X27500Y-20000
X27500Y-27000
X28500Y-20000
X28500Y-27000
X29500Y-20000
X29500Y-27000
X30500Y-20000
X30500Y-27000
X31500Y-20000
X31500Y-27000
X32500Y-20000
X32500Y-27000
X33500Y-20000
X33500Y-27000
X34500Y-20000
X34500Y-27000
X35500Y-20000
X35500Y-27000
X36500Y-20000
X36500Y-27000
X37500Y-20000
X37500Y-27000
X38500Y-20000
X38500Y-27000
X39500Y-20000
X39500Y-27000
X40500Y-20000
X40500Y-27000
X41500Y-20000
X41500Y-27000
X42500Y-20000
X42500Y-27000
X43500Y-20000
X43500Y-27000
X44500Y-20000
X44500Y-27000
X45500Y-20000
X45500Y-27000
X46409Y-22500
X46409Y-23500
X46409Y-24500
X46500Y-20000
X46500Y-27000
X50000Y-23000
X50000Y-24000
X50000Y-25000
X50000Y-26000
X50000Y-27000
X50000Y-28000
X50000Y-29000
X50000Y-30000
X50000Y-41000
X50000Y-42000
X50000Y-43000
X50000Y-44000
X50000Y-45000
X50000Y-46000
X50000Y-47000
X50000Y-48000
X56000Y-19000
X56000Y-20000
X56000Y-21000
X56000Y-22000
X56000Y-23000
X56000Y-24000
X56000Y-25000
X56000Y-26000
X56000Y-27000
X56000Y-28000
X56000Y-29000
X56000Y-30000
X56000Y-31000
X56000Y-32000
X56000Y-33000
X56000Y-34000
X56000Y-37000
X56000Y-38000
X56000Y-39000
X56000Y-40000
X56000Y-41000
X56000Y-42000
X56000Y-43000
X56000Y-44000
X56000Y-45000
X56000Y-46000
X56000Y-47000
X56000Y-48000
X56000Y-49000
X56000Y-50000
X56000Y-51000
X56000Y-52000
T4
G00X26441Y-45469
M15
G01X26126Y-45469
M16
G05
G00X26441Y-48874
M15
G01X26126Y-48874
M16
G05
G00X27909Y-45469
M15
G01X27319Y-45469
M16
G05
G00X27909Y-48874
M15
G01X27319Y-48874
M16
G05
T6
G00X29295Y-48707
M15
G01X29295Y-48549
M16
G05
G00X29295Y-50281
M15
G01X29295Y-50124
M16
G05
G00X29295Y-51463
M15
G01X29295Y-51305
M16
G05
G00X31106Y-48274
M15
G01X31106Y-48116
M16
G05
G00X31962Y-48707
M15
G01X31962Y-48549
M16
G05
G00X31962Y-50281
M15
G01X31962Y-50124
M16
G05
G00X31962Y-51463
M15
G01X31962Y-51305
M16
G05
G00X33773Y-48274
M15
G01X33773Y-48116
M16
G05
G00X34629Y-48707
M15
G01X34629Y-48549
M16
G05
G00X34629Y-50281
M15
G01X34629Y-50124
M16
G05
G00X34629Y-51463
M15
G01X34629Y-51305
M16
G05
G00X36440Y-48274
M15
G01X36440Y-48116
M16
G05
G00X37295Y-48707
M15
G01X37295Y-48549
M16
G05
G00X37295Y-50281
M15
G01X37295Y-50124
M16
G05
G00X37295Y-51463
M15
G01X37295Y-51305
M16
G05
G00X39106Y-48274
M15
G01X39106Y-48116
M16
G05
G00X63643Y-18594
M15
G01X63485Y-18594
M16
G05
G00X63643Y-21415
M15
G01X63485Y-21415
M16
G05
G00X63643Y-24236
M15
G01X63485Y-24236
M16
G05
G00X63643Y-27056
M15
G01X63485Y-27056
M16
G05
G00X63643Y-29877
M15
G01X63485Y-29877
M16
G05
G00X63643Y-32697
M15
G01X63485Y-32697
M16
G05
G00X63643Y-35518
M15
G01X63485Y-35518
M16
G05
G00X63643Y-38339
M15
G01X63485Y-38339
M16
G05
G00X63643Y-41159
M15
G01X63485Y-41159
M16
G05
G00X63643Y-43980
M15
G01X63485Y-43980
M16
G05
G00X63643Y-46800
M15
G01X63485Y-46800
M16
G05
G00X63643Y-49621
M15
G01X63485Y-49621
M16
G05
G00X64076Y-20406
M15
G01X63918Y-20406
M16
G05
G00X64076Y-23226
M15
G01X63918Y-23226
M16
G05
G00X64076Y-26047
M15
G01X63918Y-26047
M16
G05
G00X64076Y-28867
M15
G01X63918Y-28867
M16
G05
G00X64076Y-31688
M15
G01X63918Y-31688
M16
G05
G00X64076Y-34509
M15
G01X63918Y-34509
M16
G05
G00X64076Y-37329
M15
G01X63918Y-37329
M16
G05
G00X64076Y-40150
M15
G01X63918Y-40150
M16
G05
G00X64076Y-42970
M15
G01X63918Y-42970
M16
G05
G00X64076Y-45791
M15
G01X63918Y-45791
M16
G05
G00X64076Y-48611
M15
G01X63918Y-48611
M16
G05
G00X64076Y-51432
M15
G01X63918Y-51432
M16
G05
G00X65651Y-20406
M15
G01X65493Y-20406
M16
G05
G00X65651Y-23226
M15
G01X65493Y-23226
M16
G05
G00X65651Y-26047
M15
G01X65493Y-26047
M16
G05
G00X65651Y-28867
M15
G01X65493Y-28867
M16
G05
G00X65651Y-31688
M15
G01X65493Y-31688
M16
G05
G00X65651Y-34509
M15
G01X65493Y-34509
M16
G05
G00X65651Y-37329
M15
G01X65493Y-37329
M16
G05
G00X65651Y-40150
M15
G01X65493Y-40150
M16
G05
G00X65651Y-42970
M15
G01X65493Y-42970
M16
G05
G00X65651Y-45791
M15
G01X65493Y-45791
M16
G05
G00X65651Y-48611
M15
G01X65493Y-48611
M16
G05
G00X65651Y-51432
M15
G01X65493Y-51432
M16
G05
G00X66832Y-20406
M15
G01X66674Y-20406
M16
G05
G00X66832Y-23226
M15
G01X66674Y-23226
M16
G05
G00X66832Y-26047
M15
G01X66674Y-26047
M16
G05
G00X66832Y-28867
M15
G01X66674Y-28867
M16
G05
G00X66832Y-31688
M15
G01X66674Y-31688
M16
G05
G00X66832Y-34509
M15
G01X66674Y-34509
M16
G05
G00X66832Y-37329
M15
G01X66674Y-37329
M16
G05
G00X66832Y-40150
M15
G01X66674Y-40150
M16
G05
G00X66832Y-42970
M15
G01X66674Y-42970
M16
G05
G00X66832Y-45791
M15
G01X66674Y-45791
M16
G05
G00X66832Y-48611
M15
G01X66674Y-48611
M16
G05
G00X66832Y-51432
M15
G01X66674Y-51432
M16
G05
T0
M30
