M48
INCH,TZ
T1C0.0315
T2C0.0591
T3C0.0709
T4C0.0827
T5C0.1358
%
G90
G05
T1
X30201Y-49258
X30201Y-52014
X32867Y-49258
X32867Y-52014
X35534Y-49258
X35534Y-52014
X38201Y-49258
X38201Y-52014
X64627Y-19500
X64627Y-22321
X64627Y-25141
X64627Y-27962
X64627Y-30782
X64627Y-33603
X64627Y-36424
X64627Y-39244
X64627Y-42065
X64627Y-44885
X64627Y-47706
X64627Y-50527
X67383Y-19500
X67383Y-22321
X67383Y-25141
X67383Y-27962
X67383Y-30782
X67383Y-33603
X67383Y-36424
X67383Y-39244
X67383Y-42065
X67383Y-44885
X67383Y-47706
X67383Y-50527
T2
X28744Y-22545
X28744Y-24455
T3
X27551Y-22427
X27551Y-24573
T4
X25984Y-16929
X25984Y-51181
X61417Y-16929
X61417Y-51181
T5
X27303Y-32500
X27303Y-37000
X27303Y-39296
X27303Y-43796
T0
M30
